
<svg version="1.0" xmlns="http://www.w3.org/2000/svg"
 width="360.000000pt" height="158.000000pt" viewBox="0 0 360.000000 158.000000"
 preserveAspectRatio="xMidYMid meet">

<g transform="translate(0.000000,158.000000) scale(0.100000,-0.100000)"
fill="#14a1dd" stroke="none">
<path d="M1222 1378 c-17 -17 -17 -579 0 -596 18 -18 56 -14 68 7 6 12 10 124
10 295 0 236 -2 277 -16 290 -18 19 -45 21 -62 4z m58 -17 c12 -24 14 -550 1
-569 -4 -8 -19 -12 -32 -10 l-24 3 -3 285 c-1 157 0 290 3 297 7 20 43 15 55
-6z"/>
<path d="M2322 1378 c-17 -17 -17 -579 0 -596 31 -31 80 -2 77 45 -1 13 -3 11
-8 -6 -8 -29 -33 -46 -55 -38 -15 6 -16 35 -14 299 3 276 4 293 22 296 27 6
39 -12 47 -66 l6 -47 2 46 c2 63 -42 102 -77 67z"/>
<path d="M946 1184 c-13 -12 -16 -41 -16 -145 0 -72 5 -139 10 -150 12 -21 50
-25 68 -7 17 17 17 289 0 306 -17 17 -44 15 -62 -4z m48 0 c14 -5 16 -28 16
-150 0 -125 -2 -145 -16 -151 -9 -3 -24 -2 -33 4 -13 8 -16 34 -19 143 -3 151
4 172 52 154z"/>
<path d="M1496 1184 c-13 -12 -16 -41 -16 -145 0 -72 5 -139 10 -150 12 -21
50 -25 68 -7 17 17 17 289 0 306 -17 17 -44 15 -62 -4z m48 0 c14 -5 16 -28
16 -150 0 -125 -2 -145 -16 -151 -9 -3 -24 -2 -33 4 -13 8 -16 34 -19 143 -3
151 4 172 52 154z"/>
<path d="M2046 1184 c-13 -12 -16 -41 -16 -145 0 -72 5 -139 10 -150 12 -21
50 -25 68 -7 17 17 17 289 0 306 -17 17 -44 15 -62 -4z m59 -16 c3 -13 4 -81
3 -153 -3 -128 -3 -130 -27 -133 -13 -2 -28 2 -32 10 -14 21 -11 272 3 286 19
19 47 14 53 -10z"/>
<path d="M2596 1184 c-13 -12 -16 -41 -16 -145 0 -139 8 -169 43 -169 43 0 47
16 47 165 0 145 -5 165 -41 165 -10 0 -25 -7 -33 -16z m59 -149 l0 -150 -24
-3 c-13 -2 -28 2 -32 10 -5 7 -9 72 -9 144 0 137 6 157 45 152 19 -3 20 -10
20 -153z"/>
<path d="M2394 1055 c0 -49 1 -71 3 -48 2 23 2 64 0 90 -2 26 -3 8 -3 -42z"/>
<path d="M672 1048 c-16 -16 -16 -150 0 -166 18 -18 56 -14 68 7 5 11 10 45
10 76 0 31 -5 65 -10 76 -12 21 -50 25 -68 7z m63 -20 c8 -34 -1 -128 -13
-140 -5 -5 -18 -8 -28 -6 -16 3 -19 14 -22 72 -4 84 0 96 32 96 18 0 27 -7 31
-22z"/>
<path d="M1772 1048 c-7 -7 -12 -41 -12 -83 0 -76 9 -95 47 -95 30 0 43 28 43
95 0 31 -5 65 -10 76 -12 21 -50 25 -68 7z m57 -12 c7 -9 11 -39 9 -77 -3 -65
-19 -88 -52 -76 -13 5 -16 21 -16 80 0 41 3 77 7 80 11 12 40 8 52 -7z"/>
<path d="M2872 1048 c-16 -16 -16 -150 0 -166 21 -21 58 -14 68 14 13 33 13
120 0 145 -12 21 -50 25 -68 7z m56 -10 c16 -16 15 -120 -1 -142 -7 -10 -22
-17 -33 -14 -16 3 -19 13 -22 72 -2 38 -1 75 2 83 7 16 38 17 54 1z"/>
<path d="M996 575 c-68 -24 -127 -98 -125 -157 0 -13 6 -1 13 25 22 82 79 125
174 133 31 3 58 7 61 9 10 11 -87 3 -123 -10z"/>
<path d="M1643 584 c7 -8 87 -7 95 0 3 3 -19 6 -48 6 -29 0 -51 -3 -47 -6z"/>
<path d="M2090 584 c37 -8 88 -9 84 -2 -3 4 -26 7 -52 7 -26 -1 -40 -3 -32 -5z"/>
<path d="M2467 580 c-46 -14 -98 -60 -118 -104 -19 -42 -25 -131 -11 -154 5
-7 6 15 4 47 -9 118 57 194 179 210 56 7 58 9 19 9 -25 0 -58 -4 -73 -8z"/>
<path d="M1148 540 l4 -39 -53 4 -54 4 47 -8 c26 -5 52 -12 57 -16 7 -4 11 12
11 44 0 28 -3 51 -8 51 -4 0 -6 -18 -4 -40z"/>
<path d="M1310 385 l0 -195 45 0 45 0 0 195 0 195 -45 0 -45 0 0 -195z m80 0
l0 -185 -35 0 -35 0 0 185 0 185 35 0 35 0 0 -185z"/>
<path d="M1579 551 c-16 -16 -29 -38 -29 -48 1 -11 6 -6 15 14 7 17 26 38 42
47 15 8 22 15 15 16 -8 0 -27 -13 -43 -29z"/>
<path d="M1766 565 c4 -8 8 -15 10 -15 2 0 4 7 4 15 0 8 -4 15 -10 15 -5 0 -7
-7 -4 -15z"/>
<path d="M2025 568 c-30 -16 -66 -50 -77 -73 -5 -11 3 -5 18 14 15 18 46 42
68 52 23 10 34 19 26 18 -8 0 -24 -5 -35 -11z"/>
<path d="M2198 555 c2 -14 6 -25 8 -25 2 0 4 11 4 25 0 14 -4 25 -9 25 -4 0
-6 -11 -3 -25z"/>
<path d="M2625 564 c65 -59 87 -77 74 -56 -8 13 -30 33 -49 44 -19 12 -30 17
-25 12z"/>
<path d="M1770 529 c0 -6 -15 -10 -32 -9 -58 3 -76 0 -92 -16 -9 -8 -16 -22
-16 -29 0 -16 27 -45 42 -45 6 0 0 9 -13 19 -20 16 -22 23 -13 38 9 14 24 18
73 18 51 0 61 3 61 18 0 9 -2 17 -5 17 -3 0 -5 -5 -5 -11z"/>
<path d="M2193 506 c-10 -11 -9 -15 2 -20 10 -4 15 1 15 14 0 23 -1 24 -17 6z"/>
<path d="M2118 503 c12 -2 30 -2 40 0 9 3 -1 5 -23 4 -22 0 -30 -2 -17 -4z"/>
<path d="M2546 499 c55 -13 87 -49 95 -107 l6 -47 2 43 c1 58 -45 111 -104
117 l-40 5 41 -11z"/>
<path d="M999 479 l-24 -20 30 17 c39 24 40 24 28 24 -6 0 -21 -9 -34 -21z"/>
<path d="M2046 473 c-30 -30 -39 -58 -33 -99 3 -21 4 -17 6 15 1 35 8 50 35
77 19 19 31 34 26 34 -4 0 -19 -12 -34 -27z"/>
<path d="M2475 490 c-3 -6 1 -7 9 -4 18 7 21 14 7 14 -6 0 -13 -4 -16 -10z"/>
<path d="M2445 469 c-4 -6 -5 -12 -2 -15 2 -3 7 2 10 11 7 17 1 20 -8 4z"/>
<path d="M1926 454 c-3 -9 -6 -39 -6 -67 0 -101 70 -184 162 -193 49 -5 41 1
-15 11 -48 8 -112 64 -128 112 -6 19 -9 62 -7 94 5 63 4 68 -6 43z"/>
<path d="M1551 439 c-1 -24 49 -66 99 -84 25 -8 51 -23 58 -32 6 -9 12 -12 12
-6 0 16 -22 31 -70 48 -49 17 -78 40 -91 70 -5 14 -8 15 -8 4z"/>
<path d="M1691 426 c8 -8 79 -35 79 -30 0 3 -16 12 -35 20 -33 14 -53 18 -44
10z"/>
<path d="M2732 399 c-5 -107 -64 -180 -162 -200 -32 -6 -32 -7 -7 -8 37 -1 98
31 130 69 31 36 50 98 44 143 -4 32 -4 32 -5 -4z"/>
<path d="M871 352 c-2 -37 36 -99 76 -127 21 -14 42 -25 48 -25 5 0 -8 11 -30
24 -42 26 -73 69 -86 120 -5 25 -7 26 -8 8z"/>
<path d="M960 357 c0 -11 15 -34 34 -53 31 -31 39 -34 88 -33 l53 2 -56 6
c-62 7 -86 21 -105 66 -9 20 -13 24 -14 12z"/>
<path d="M2420 358 c0 -20 47 -78 63 -78 6 0 1 7 -12 16 -13 9 -29 31 -37 48
-7 17 -13 23 -14 14z"/>
<path d="M1801 325 c-1 -11 -4 -31 -6 -45 l-6 -25 11 25 c6 13 9 33 7 45 -4
19 -4 19 -6 0z"/>
<path d="M2020 333 c0 -14 39 -53 54 -53 6 0 1 7 -11 15 -13 9 -27 23 -32 33
-6 9 -11 12 -11 5z"/>
<path d="M2605 308 c-23 -24 -25 -28 -7 -19 12 6 26 20 32 31 14 27 10 25 -25
-12z"/>
<path d="M1706 283 c-6 -14 -5 -15 5 -6 7 7 10 15 7 18 -3 3 -9 -2 -12 -12z"/>
<path d="M1145 248 l0 -43 -70 -6 -70 -5 62 -2 c86 -3 93 2 93 54 0 24 -3 44
-7 44 -5 0 -8 -19 -8 -42z"/>
<path d="M2197 270 c3 -11 7 -20 9 -20 2 0 4 9 4 20 0 11 -4 20 -9 20 -5 0 -7
-9 -4 -20z"/>
<path d="M1545 269 c3 -4 18 -9 34 -11 17 -2 28 -1 26 3 -3 4 -18 9 -34 11
-17 2 -28 1 -26 -3z"/>
<path d="M2098 273 c7 -3 16 -2 19 1 4 3 -2 6 -13 5 -11 0 -14 -3 -6 -6z"/>
<path d="M2143 273 c9 -2 23 -2 30 0 6 3 -1 5 -18 5 -16 0 -22 -2 -12 -5z"/>
<path d="M2385 251 c34 -38 81 -61 122 -60 32 1 24 5 -30 14 -23 4 -55 21 -80
43 -42 36 -42 36 -12 3z"/>
<path d="M2518 273 c12 -2 30 -2 40 0 9 3 -1 5 -23 4 -22 0 -30 -2 -17 -4z"/>
<path d="M1668 263 c7 -3 16 -2 19 1 4 3 -2 6 -13 5 -11 0 -14 -3 -6 -6z"/>
<path d="M1770 242 c0 -4 -12 -15 -27 -24 -16 -10 -23 -18 -16 -18 7 0 25 11
40 25 15 13 22 25 16 25 -7 0 -13 -3 -13 -8z"/>
<path d="M2202 220 c0 -14 2 -19 5 -12 2 6 2 18 0 25 -3 6 -5 1 -5 -13z"/>
<path d="M1550 198 c0 -5 18 -8 40 -8 22 0 40 2 40 4 0 2 -18 6 -40 8 -22 2
-40 0 -40 -4z"/>
<path d="M1658 193 c12 -2 30 -2 40 0 9 3 -1 5 -23 4 -22 0 -30 -2 -17 -4z"/>
<path d="M2143 193 c9 -2 25 -2 35 0 9 3 1 5 -18 5 -19 0 -27 -2 -17 -5z"/>
</g>
</svg>
