
<svg version="1.0" xmlns="http://www.w3.org/2000/svg"
 width="50.418px" viewBox="0 0 403.000000 125.000000"
 preserveAspectRatio="xMidYMid meet">

<g transform="translate(0.000000,125.000000) scale(0.100000,-0.100000)"
fill="#235c8c" stroke="none">
<path d="M0 625 l0 -625 2015 0 2015 0 0 625 0 625 -2015 0 -2015 0 0 -625z
m993 392 c48 -32 60 -69 70 -239 13 -194 -1 -446 -27 -495 -33 -66 -44 -68
-302 -68 -220 0 -234 1 -261 21 -41 30 -55 66 -65 168 -13 117 -4 489 13 536
16 46 46 78 83 90 17 5 128 8 246 7 187 -2 220 -4 243 -20z m346 12 c89 -31
47 -119 -59 -119 -39 0 -40 -1 -40 -35 0 -32 -2 -35 -30 -35 l-30 0 0 100 0
100 64 0 c34 0 77 -5 95 -11z m190 -35 l41 -47 19 24 c54 68 57 71 85 67 l28
-3 -56 -64 c-44 -51 -56 -72 -56 -98 0 -29 -3 -33 -25 -33 -22 0 -25 4 -25 39
0 22 -6 44 -15 51 -9 7 -34 35 -56 61 l-41 49 30 0 c23 0 40 -11 71 -46z m431
31 c0 -11 -12 -15 -45 -15 l-45 0 0 -85 c0 -84 0 -85 -25 -85 -25 0 -25 1 -25
85 l0 85 -45 0 c-33 0 -45 4 -45 15 0 12 19 15 115 15 96 0 115 -3 115 -15z
m110 -25 l0 -40 55 0 55 0 0 40 c0 38 2 40 30 40 l30 0 0 -100 0 -100 -30 0
c-28 0 -30 2 -30 40 l0 40 -55 0 -55 0 0 -40 c0 -36 -2 -40 -25 -40 l-25 0 0
100 0 100 25 0 c23 0 25 -4 25 -40z m417 20 c58 -35 54 -134 -8 -165 -15 -8
-51 -15 -79 -15 -44 0 -56 5 -81 29 -46 46 -35 125 22 157 36 20 109 17 146
-6z m208 -51 l50 -70 3 70 c3 68 4 71 27 71 25 0 25 0 25 -100 l0 -100 -33 0
c-30 0 -39 7 -85 72 l-52 71 0 -71 c0 -70 -1 -72 -25 -72 l-25 0 0 100 0 100
33 0 c28 0 38 -8 82 -71z m-1315 -274 c0 -10 -11 -15 -35 -15 l-35 0 0 -70 0
-70 35 0 c24 0 35 -5 35 -15 0 -12 -17 -15 -95 -15 -78 0 -95 3 -95 15 0 10
11 15 35 15 l35 0 0 70 0 70 -35 0 c-24 0 -35 5 -35 15 0 12 17 15 95 15 78 0
95 -3 95 -15z m188 -50 l47 -66 3 66 c3 62 4 65 27 65 25 0 25 0 25 -100 l0
-100 -29 0 c-25 0 -37 11 -78 66 l-48 66 -3 -66 c-3 -63 -4 -66 -27 -66 -25 0
-25 0 -25 100 l0 100 30 0 c26 0 38 -10 78 -65z m362 46 c0 -17 -6 -19 -52
-15 -64 6 -93 -8 -64 -31 11 -8 27 -15 35 -15 9 0 35 -9 59 -20 33 -15 42 -24
42 -44 0 -38 -43 -56 -135 -56 -67 0 -75 2 -75 19 0 17 6 18 63 14 45 -3 67
-1 82 10 19 15 19 15 -5 26 -14 6 -43 15 -66 21 -120 30 -81 110 54 110 55 0
62 -2 62 -19z m310 5 c0 -10 -14 -16 -42 -18 l-43 -3 -3 -82 c-3 -81 -3 -83
-27 -83 -25 0 -25 1 -25 85 l0 85 -45 0 c-42 0 -54 7 -38 23 3 4 55 7 115 7
87 0 108 -3 108 -14z m260 -1 c0 -10 -10 -15 -30 -15 l-30 0 0 -70 0 -70 30 0
c20 0 30 -5 30 -15 0 -12 -17 -15 -95 -15 -78 0 -95 3 -95 15 0 10 11 15 35
15 l35 0 0 70 0 70 -35 0 c-33 0 -43 8 -28 23 3 4 46 7 95 7 72 0 88 -3 88
-15z m300 0 c0 -11 -11 -15 -40 -15 l-40 0 0 -85 0 -85 -30 0 -30 0 0 85 0 85
-40 0 c-29 0 -40 4 -40 15 0 12 19 15 110 15 91 0 110 -3 110 -15z m118 -65
c3 -80 9 -90 58 -90 45 0 54 15 54 97 0 71 1 73 25 73 24 0 25 -2 25 -75 0
-67 -3 -79 -25 -100 -20 -21 -34 -25 -85 -25 -51 0 -65 4 -85 25 -22 21 -25
33 -25 100 l0 76 28 -3 c26 -3 27 -4 30 -78z m452 65 c0 -11 -12 -15 -45 -15
l-45 0 0 -85 c0 -84 0 -85 -25 -85 -24 0 -24 2 -27 83 l-3 82 -42 3 c-29 2
-43 8 -43 18 0 11 21 14 115 14 96 0 115 -3 115 -15z m258 -2 c3 -10 -14 -13
-62 -13 -64 0 -66 -1 -66 -25 0 -24 3 -25 60 -25 47 0 60 -3 60 -15 0 -12 -13
-15 -60 -15 l-60 0 0 -30 0 -30 65 0 c51 0 65 -3 65 -15 0 -12 -17 -15 -90
-15 l-90 0 0 100 0 101 87 -3 c58 -2 88 -7 91 -15z m2 -283 c0 -7 -413 -10
-1220 -10 -807 0 -1220 3 -1220 10 0 7 413 10 1220 10 807 0 1220 -3 1220 -10z
m-1920 -115 c0 -54 -1 -55 -29 -55 -26 0 -41 14 -41 40 0 16 33 41 47 36 8 -3
11 -1 8 4 -6 10 1 30 11 30 2 0 4 -25 4 -55z m980 -6 c0 -27 -4 -49 -10 -49
-5 0 -10 25 -10 56 0 34 4 53 10 49 6 -3 10 -28 10 -56z m-1422 39 c7 -7 12
-24 12 -38 0 -31 -17 -50 -45 -50 -27 0 -45 18 -45 46 0 43 50 70 78 42z m340
5 c-34 -5 -38 -33 -5 -34 l22 0 -22 -9 c-32 -13 -29 -38 5 -43 25 -4 25 -4 -5
-6 l-33 -1 0 50 0 50 33 -1 c30 -2 30 -2 5 -6z m667 -3 c4 -6 2 -17 -4 -24 -9
-10 -8 -15 3 -19 8 -3 17 -1 20 6 2 7 5 5 5 -5 1 -9 3 -23 6 -30 4 -10 -5 -14
-37 -13 -37 0 -43 3 -46 23 -2 12 2 22 8 22 7 0 9 7 6 16 -3 9 -4 20 0 25 7
12 31 11 39 -1z m151 -15 c15 -23 15 -27 0 -50 -10 -16 -26 -25 -41 -25 -23 0
-25 3 -25 50 0 47 2 50 25 50 15 0 31 -9 41 -25z m855 16 c-33 -9 -49 -36 -35
-58 15 -24 56 -31 48 -9 -3 9 -1 16 5 16 6 0 11 -9 11 -20 0 -15 -7 -20 -28
-20 -15 0 -33 5 -40 12 -28 28 1 89 42 87 19 -1 18 -2 -3 -8z m-1301 -24 c12
-4 11 -6 -2 -6 -23 -1 -25 -47 -3 -54 11 -4 10 -4 -2 -3 -11 1 -20 12 -24 31
-6 33 0 62 10 47 3 -5 13 -12 21 -15z m1185 13 c-3 -5 2 -11 12 -11 17 -1 17
-2 1 -6 -10 -2 -18 -13 -18 -23 0 -11 8 -24 18 -30 16 -10 15 -10 -3 -8 -29 5
-42 88 -13 88 5 0 6 -4 3 -10z m-1815 -14 c18 -23 8 -61 -17 -64 -12 -2 -24
-11 -26 -20 -3 -9 -5 6 -6 35 -1 47 5 59 30 62 4 1 12 -6 19 -13z m80 -1 c15
-18 5 -35 -23 -35 -24 0 -13 -15 18 -23 12 -3 8 -5 -10 -4 -23 2 -31 7 -33 25
-3 22 13 52 28 52 4 0 13 -7 20 -15z m79 1 c7 -8 11 -27 8 -43 -4 -27 -4 -27
-6 5 -1 25 -5 32 -21 32 -16 0 -20 -7 -21 -32 l-2 -33 -6 35 c-5 26 -2 37 9
42 22 10 26 9 39 -6z m346 4 c3 -5 -3 -10 -13 -10 -38 0 -36 -43 3 -53 16 -5
15 -5 -4 -4 -36 3 -49 31 -27 56 21 23 32 26 41 11z m63 -2 c7 -7 12 -25 12
-40 0 -24 -4 -28 -30 -28 -39 0 -40 24 -2 44 l27 15 -30 1 c-23 0 -27 3 -15
10 19 13 24 12 38 -2z m158 4 c32 -22 15 -78 -22 -70 -22 4 -31 43 -14 64 14
16 20 17 36 6z m92 -41 l-1 -36 -4 33 c-3 23 -9 32 -23 32 -14 0 -20 -9 -23
-32 l-4 -33 -1 37 c-2 27 2 37 16 40 31 8 42 -3 40 -41z m332 34 c15 -18 5
-35 -23 -35 -24 0 -13 -15 18 -23 12 -3 8 -5 -10 -4 -23 2 -31 7 -33 25 -3 22
13 52 28 52 4 0 13 -7 20 -15z m150 0 c15 -18 5 -35 -23 -35 -24 0 -13 -16 18
-23 15 -4 14 -5 -7 -6 -41 -2 -58 49 -24 71 16 11 22 10 36 -7z m110 1 c19
-24 8 -61 -19 -64 -38 -6 -54 33 -25 62 19 20 28 20 44 2z m80 0 c18 -23 8
-61 -17 -64 -12 -2 -24 -11 -26 -20 -3 -9 -5 6 -6 35 -1 47 5 59 30 62 4 1 12
-6 19 -13z m123 5 c4 -1 6 -18 5 -38 -1 -37 -1 -37 -5 -5 -3 19 -10 32 -19 32
-9 0 -15 -12 -16 -32 l-1 -33 -4 33 c-3 23 -9 32 -23 32 -14 0 -20 -9 -23 -32
l-4 -33 -1 37 c-2 43 9 48 91 39z m76 0 c20 -13 6 -41 -21 -41 -25 0 -14 -15
17 -23 12 -3 8 -5 -10 -4 -23 2 -31 7 -33 25 -3 22 13 52 27 52 3 0 12 -4 20
-9z m89 -40 l-1 -36 -4 33 c-3 23 -9 32 -23 32 -14 0 -20 -9 -23 -32 l-4 -33
-1 37 c-2 27 2 37 16 40 31 8 42 -3 40 -41z m230 31 c-12 -2 -18 -13 -18 -33
0 -16 -4 -29 -10 -29 -5 0 -10 15 -10 34 0 34 20 51 45 37 6 -3 2 -7 -7 -9z
m72 4 c6 -8 10 -25 8 -38 -4 -32 -61 -34 -66 -2 -3 21 20 54 37 54 5 0 14 -7
21 -14z m160 0 c18 -23 8 -61 -17 -64 -13 -2 -24 -11 -25 -20 0 -9 -4 6 -7 33
-5 39 -3 52 9 57 22 10 26 9 40 -6z m-1832 -54 c11 2 17 13 17 31 -1 15 3 27
7 27 4 0 8 -16 8 -35 0 -32 -2 -35 -30 -35 -28 0 -30 2 -28 38 l1 37 4 -33 c3
-25 9 -32 21 -30z m249 6 c-2 -13 -4 -5 -4 17 -1 22 1 32 4 23 2 -10 2 -28 0
-40z m536 26 l14 -27 7 27 c3 14 11 26 16 26 5 0 2 -16 -7 -35 -18 -39 -27
-38 -41 5 -13 37 -7 39 11 4z m947 -34 c14 0 20 9 23 33 4 31 4 31 5 -5 2 -36
0 -38 -28 -38 -28 0 -30 2 -28 38 1 36 1 36 5 5 3 -24 9 -33 23 -33z"/>
<path d="M620 885 c-55 -25 -70 -44 -70 -87 0 -44 13 -49 36 -13 25 39 114 77
193 83 60 4 71 2 90 -17 35 -35 24 -106 -27 -184 -26 -39 -95 -87 -126 -87
-23 0 -17 20 49 153 l53 107 -27 0 c-16 0 -35 -8 -43 -17 -65 -74 -142 -348
-120 -427 13 -48 27 -40 29 17 1 28 8 70 16 91 11 34 20 41 57 52 58 17 142
76 173 122 14 20 31 58 38 84 13 54 1 83 -48 115 -38 25 -223 30 -273 8z"/>
<path d="M1238 975 c-4 -34 -3 -35 28 -35 45 0 64 9 64 31 0 20 -35 39 -70 39
-13 0 -19 -9 -22 -35z"/>
<path d="M2363 984 c-44 -44 -15 -114 46 -114 34 0 48 10 60 43 18 47 -15 97
-64 97 -9 0 -27 -12 -42 -26z"/>
<path d="M1657 287 c-8 -20 9 -41 27 -34 23 9 21 47 -3 47 -10 0 -21 -6 -24
-13z"/>
<path d="M1210 310 c-6 -12 -8 -30 -5 -41 10 -29 59 -22 63 9 7 46 -38 70 -58
32z"/>
<path d="M2240 320 c0 -5 5 -10 10 -10 6 0 10 5 10 10 0 6 -4 10 -10 10 -5 0
-10 -4 -10 -10z"/>
<path d="M2234 279 c-9 -16 12 -33 31 -25 14 5 15 9 5 21 -15 18 -26 19 -36 4z"/>
<path d="M2370 289 c0 -36 2 -40 23 -37 42 6 33 77 -10 78 -8 0 -13 -15 -13
-41z"/>
<path d="M1310 274 c0 -33 33 -30 38 4 3 17 -2 22 -17 22 -16 0 -21 -6 -21
-26z"/>
<path d="M1398 293 c6 -2 18 -2 25 0 6 3 1 5 -13 5 -14 0 -19 -2 -12 -5z"/>
<path d="M1880 260 c0 -5 9 -10 20 -10 11 0 20 5 20 10 0 6 -9 10 -20 10 -11
0 -20 -4 -20 -10z"/>
<path d="M2040 275 c0 -18 5 -25 20 -25 15 0 20 7 20 25 0 18 -5 25 -20 25
-15 0 -20 -7 -20 -25z"/>
<path d="M2468 293 c6 -2 18 -2 25 0 6 3 1 5 -13 5 -14 0 -19 -2 -12 -5z"/>
<path d="M2618 293 c7 -3 16 -2 19 1 4 3 -2 6 -13 5 -11 0 -14 -3 -6 -6z"/>
<path d="M2721 296 c-15 -18 -3 -48 18 -44 21 4 27 44 7 51 -8 3 -19 0 -25 -7z"/>
<path d="M2800 274 c0 -33 33 -30 38 4 3 17 -2 22 -17 22 -16 0 -21 -6 -21
-26z"/>
<path d="M3010 300 c-12 -8 -10 -10 8 -10 13 0 20 4 17 10 -7 12 -6 12 -25 0z"/>
<path d="M3391 296 c-16 -19 -7 -46 14 -46 22 0 30 29 13 46 -13 13 -16 13
-27 0z"/>
<path d="M3550 274 c0 -33 33 -30 38 4 3 17 -2 22 -17 22 -16 0 -21 -6 -21
-26z"/>
</g>
</svg>
