<?xml version="1.0" standalone="no"?>
<!DOCTYPE svg PUBLIC "-//W3C//DTD SVG 20010904//EN"
 "http://www.w3.org/TR/2001/REC-SVG-20010904/DTD/svg10.dtd">
<svg version="1.0" xmlns="http://www.w3.org/2000/svg"
 width="4553.000000pt" height="1150.000000pt" viewBox="0 0 4553.000000 1150.000000"
 preserveAspectRatio="xMidYMid meet">

<g transform="translate(0.000000,1150.000000) scale(0.100000,-0.100000)"
fill="#000000" stroke="none">
<path d="M38600 5745 l0 -5745 3465 0 3465 0 0 5745 0 5745 -3465 0 -3465 0 0
-5745z m3808 3260 c528 -55 1030 -246 1467 -558 184 -131 299 -230 485 -417
203 -203 280 -303 449 -585 263 -438 415 -856 462 -1265 8 -72 9 -185 4 -370
-4 -146 -10 -989 -14 -1875 l-7 -1610 -31 -116 c-125 -467 -487 -933 -1103
-1420 -277 -219 -736 -445 -1138 -558 -695 -196 -1445 -166 -2132 85 -172 63
-465 215 -640 332 -211 140 -349 252 -529 427 -357 347 -577 645 -697 945 -34
86 -38 106 -42 206 -5 133 8 200 54 293 61 122 183 215 367 280 92 32 112 36
202 36 126 -1 204 -23 299 -85 130 -85 245 -240 337 -452 57 -132 98 -184 291
-374 354 -348 735 -541 1223 -621 137 -22 539 -25 685 -5 299 42 588 140 815
277 299 181 580 475 772 810 60 104 75 232 71 597 l-3 278 -90 -75 c-370 -310
-820 -497 -1375 -572 -173 -23 -849 -26 -995 -5 -686 103 -1268 414 -1864 997
-171 167 -191 191 -286 335 -247 377 -397 705 -495 1083 -71 275 -100 503
-100 786 0 1016 425 1851 1304 2561 170 137 528 335 797 439 272 107 575 178
864 204 115 10 460 6 593 -8z"/>
<path d="M41810 7789 c-589 -61 -1056 -365 -1424 -926 -238 -364 -328 -688
-313 -1138 7 -205 24 -332 67 -491 142 -534 527 -965 1132 -1270 186 -94 423
-143 728 -151 401 -11 678 44 975 192 184 92 296 175 465 345 194 195 335 391
477 664 135 263 183 848 102 1251 -45 224 -157 483 -286 665 -77 107 -251 291
-363 385 -148 123 -387 273 -570 359 -85 40 -301 87 -509 111 -136 16 -345 18
-481 4z"/>
<path d="M5770 11460 c-39 -6 -93 -23 -136 -45 -134 -66 -263 -237 -328 -433
-21 -65 -21 -72 -10 -247 11 -173 20 -2335 9 -2335 -2 0 -50 37 -107 83 -393
314 -856 503 -1428 583 -158 21 -630 30 -786 14 -506 -51 -996 -223 -1459
-511 -292 -182 -715 -594 -952 -929 -229 -323 -408 -724 -492 -1105 -54 -245
-65 -363 -66 -695 0 -329 6 -395 55 -640 87 -429 294 -907 571 -1315 51 -76
113 -145 256 -286 362 -356 667 -577 1044 -758 305 -146 590 -228 920 -266
191 -23 738 -16 899 9 350 57 628 145 921 292 333 167 614 372 928 679 183
180 279 304 447 581 222 367 368 725 439 1079 40 199 48 319 40 598 -4 138
-10 1370 -13 2737 -7 2392 -8 2487 -26 2535 -61 166 -197 277 -426 350 -95 30
-199 39 -300 25z m-2140 -3633 c261 -46 323 -64 456 -132 410 -211 732 -485
932 -795 198 -304 292 -656 292 -1087 0 -158 -19 -312 -65 -528 -29 -137 -41
-174 -85 -260 -299 -581 -696 -961 -1180 -1130 -456 -158 -1149 -133 -1520 56
-656 334 -1056 811 -1175 1403 -94 473 -38 979 148 1326 143 265 357 550 528
701 330 290 635 420 1109 473 19 2 121 3 225 1 149 -2 221 -8 335 -28z"/>
<path d="M27930 11460 c-207 -30 -372 -194 -471 -469 -22 -63 -22 -65 -11
-275 13 -216 18 -2316 6 -2316 -3 0 -34 25 -70 55 -347 294 -825 507 -1324
589 -285 47 -715 61 -975 31 -478 -55 -935 -217 -1381 -490 -194 -118 -406
-296 -629 -526 -497 -514 -783 -1085 -887 -1772 -30 -194 -32 -675 -5 -867 75
-524 270 -1022 593 -1510 71 -107 108 -150 266 -305 100 -99 226 -216 278
-260 554 -461 1116 -713 1732 -775 161 -17 717 -8 854 13 228 36 422 86 634
163 131 49 433 199 563 281 352 221 744 575 932 843 295 421 502 862 596 1270
62 272 71 457 49 1030 -5 153 -10 1225 -10 2545 0 2466 3 2331 -51 2437 -31
62 -125 155 -199 199 -36 21 -114 55 -175 75 -118 40 -210 50 -315 34z m-2171
-3629 c225 -39 352 -71 432 -112 695 -348 1106 -828 1228 -1435 48 -239 53
-594 12 -829 -44 -246 -69 -332 -133 -455 -345 -657 -812 -1048 -1395 -1166
-411 -83 -986 -38 -1258 98 -655 329 -1051 777 -1194 1353 -42 169 -55 299
-55 540 1 259 15 362 78 583 89 308 373 736 653 985 111 99 296 224 418 282
180 87 418 153 623 174 145 16 450 6 591 -18z"/>
<path d="M8056 10574 c-206 -50 -356 -205 -440 -457 -43 -131 -43 -158 -2
-282 86 -256 202 -398 379 -464 85 -31 176 -37 275 -16 312 63 491 204 537
422 17 81 19 281 4 355 -40 191 -201 339 -466 428 -103 34 -187 38 -287 14z"/>
<path d="M30208 10574 c-77 -18 -183 -73 -240 -123 -95 -84 -184 -250 -225
-419 -16 -68 -16 -69 11 -162 51 -176 141 -334 238 -413 109 -89 260 -131 396
-108 261 44 449 156 527 315 47 96 58 163 53 336 -4 119 -9 155 -27 202 -62
159 -212 279 -450 358 -100 34 -186 38 -283 14z"/>
<path d="M8032 9040 c-102 -27 -167 -64 -242 -140 -72 -72 -115 -146 -154
-261 -59 -175 -56 -27 -56 -2869 l0 -2605 25 -92 c93 -347 277 -512 571 -513
157 0 372 83 484 187 73 67 134 183 150 283 6 43 10 1009 10 2795 0 2917 2
2794 -46 2888 -70 137 -217 245 -433 318 -102 35 -199 38 -309 9z"/>
<path d="M30196 9044 c-253 -61 -407 -267 -456 -609 -6 -45 -10 -998 -10
-2666 l0 -2596 24 -97 c119 -468 471 -635 904 -431 163 77 263 199 298 363 21
104 21 5531 -1 5615 -49 189 -193 317 -460 407 -101 34 -197 39 -299 14z"/>
<path d="M12505 9030 c-519 -53 -1041 -240 -1505 -539 -189 -122 -521 -427
-709 -651 -426 -508 -650 -1023 -733 -1685 -18 -150 -15 -571 5 -728 72 -539
262 -1030 590 -1522 58 -88 116 -157 216 -259 602 -612 1202 -947 1906 -1062
156 -25 648 -31 835 -9 284 32 494 73 604 117 797 317 1257 619 1406 923 70
144 74 252 14 427 -74 218 -206 354 -384 396 -112 26 -200 26 -336 -3 -71 -15
-137 -32 -147 -37 -10 -5 -62 -43 -115 -85 -289 -227 -610 -396 -884 -467
-179 -46 -302 -59 -518 -53 -344 10 -610 73 -834 199 -549 306 -888 681 -1045
1154 -135 404 -133 798 5 1269 77 261 290 593 543 845 283 281 575 436 956
506 144 27 646 27 782 1 175 -33 385 -103 523 -173 36 -18 122 -75 192 -126
223 -163 453 -295 577 -332 109 -32 284 -14 398 41 82 39 191 149 235 238 97
191 117 355 65 508 -46 132 -64 159 -172 253 -548 474 -1131 749 -1785 839
-136 19 -553 28 -685 15z"/>
<path d="M32633 9005 c-236 -51 -393 -234 -454 -530 -18 -86 -19 -193 -19
-2708 0 -2607 0 -2619 21 -2700 11 -45 43 -129 71 -187 104 -215 268 -320 499
-320 164 0 361 76 475 182 73 69 106 120 138 211 21 62 21 69 27 1527 4 806 9
1479 12 1495 4 17 11 75 17 130 29 258 85 453 177 613 130 226 267 405 429
562 276 267 581 419 954 476 145 22 458 22 605 -1 239 -36 362 -74 555 -170
540 -268 883 -707 1009 -1289 66 -304 71 -428 71 -1946 0 -1414 -3 -1346 57
-1470 38 -80 149 -186 243 -232 99 -49 238 -88 310 -88 132 0 357 91 460 187
69 63 103 116 134 206 21 62 21 62 24 1497 3 1499 -1 1710 -38 1939 -82 500
-310 1003 -655 1446 -81 103 -359 375 -500 489 -448 360 -944 583 -1488 668
-124 19 -182 22 -457 23 -332 0 -425 -7 -670 -51 -447 -81 -855 -262 -1165
-517 l-80 -66 -7 93 c-16 213 -115 353 -323 456 -175 86 -290 106 -432 75z"/>
<path d="M18485 8983 c-225 -19 -507 -80 -737 -159 -256 -88 -574 -245 -796
-394 -200 -134 -568 -481 -743 -700 -380 -475 -594 -986 -665 -1585 -20 -169
-22 -533 -5 -685 64 -551 256 -1061 588 -1563 72 -109 113 -157 252 -296 335
-334 646 -563 1009 -745 287 -144 553 -227 892 -278 120 -18 753 -18 875 0
462 70 935 241 1258 456 258 171 448 326 647 526 578 579 871 1269 897 2110
23 734 -191 1403 -640 2002 -224 300 -428 500 -733 720 -462 332 -1004 538
-1549 588 -101 9 -456 11 -550 3z m368 -1243 c418 -27 793 -164 1082 -395 453
-362 706 -792 766 -1299 16 -133 7 -513 -15 -631 -42 -229 -90 -375 -172 -522
-331 -592 -779 -946 -1330 -1053 -245 -47 -632 -47 -866 0 -136 28 -314 88
-426 144 -214 107 -505 331 -657 504 -334 379 -480 813 -462 1367 6 176 22
292 63 455 41 163 218 493 372 694 353 461 829 711 1407 739 33 2 65 4 70 5 6
1 81 -3 168 -8z"/>
</g>
</svg>
